<svg width="230" height="149" viewBox="0 0 230 149" fill="none" xmlns="http://www.w3.org/2000/svg">
<path d="M8.54755 92.9577C8.54755 90.4937 9.01155 88.3177 9.93955 86.4297C10.8675 84.5097 12.0515 82.8617 13.4915 81.4857C14.9635 80.0777 16.4835 78.8937 18.0515 77.9337C19.6515 76.9737 21.1395 76.2217 22.5155 75.6777C23.9235 75.1017 25.0115 74.7017 25.7795 74.4777C25.1075 74.0937 24.3235 73.4697 23.4275 72.6057C22.5635 71.7097 21.7155 70.6377 20.8835 69.3897C20.0835 68.1097 19.4115 66.6857 18.8675 65.1177C18.3235 63.5497 18.0515 61.9017 18.0515 60.1737C18.0515 57.4857 18.7875 54.9897 20.2595 52.6857C21.7635 50.3817 23.9395 48.5417 26.7875 47.1657C29.6355 45.7577 33.0435 45.0537 37.0115 45.0537C40.9475 45.0537 44.2275 45.7257 46.8516 47.0697C49.5076 48.4137 51.5076 50.2377 52.8516 52.5417C54.2275 54.8457 54.9155 57.4537 54.9155 60.3657C54.9155 62.6377 54.4035 64.6857 53.3795 66.5097C52.3875 68.3017 51.1395 69.8857 49.6355 71.2617C48.1315 72.6057 46.6275 73.7417 45.1235 74.6697C43.6515 75.5977 42.4035 76.3017 41.3795 76.7817L52.1796 88.3977C52.9795 87.7257 54.0835 86.5737 55.4916 84.9417C56.9315 83.3097 58.4195 81.3577 59.9555 79.0857L67.9235 86.2377C67.4435 87.0057 66.7555 87.9817 65.8595 89.1657C64.9635 90.3497 63.9875 91.5337 62.9315 92.7177C61.9076 93.9017 60.8996 94.9097 59.9076 95.7417L73.0595 109.566H57.9396L50.9315 102.126C49.2995 103.534 47.4115 104.894 45.2675 106.206C43.1555 107.518 40.7555 108.606 38.0675 109.47C35.3795 110.302 32.3395 110.718 28.9475 110.718C25.2675 110.718 21.8755 110.03 18.7715 108.654C15.6995 107.278 13.2195 105.262 11.3315 102.606C9.47555 99.9497 8.54755 96.7337 8.54755 92.9577ZM31.6835 81.6777C31.2675 81.8377 30.6595 82.1097 29.8595 82.4937C29.0915 82.8457 28.2595 83.3097 27.3635 83.8857C26.4675 84.4297 25.6195 85.1017 24.8195 85.9017C24.0195 86.6697 23.3635 87.5497 22.8515 88.5417C22.3395 89.5337 22.0835 90.6537 22.0835 91.9017C22.0835 93.6297 22.4835 95.0697 23.2835 96.2217C24.0835 97.3417 25.1555 98.1737 26.4995 98.7177C27.8755 99.2617 29.3955 99.5337 31.0595 99.5337C32.7555 99.5337 34.3875 99.2457 35.9555 98.6697C37.5235 98.0937 38.9475 97.3897 40.2275 96.5577C41.5395 95.7257 42.5795 94.9257 43.3475 94.1577L31.6835 81.6777ZM36.9635 54.2697C35.4275 54.2697 34.1155 54.5737 33.0275 55.1817C31.9395 55.7577 31.1235 56.5097 30.5795 57.4377C30.0355 58.3657 29.7635 59.3257 29.7635 60.3177C29.7635 61.3737 30.0195 62.4617 30.5315 63.5817C31.0435 64.7017 31.6355 65.7417 32.3075 66.7017C33.0115 67.6617 33.6515 68.4617 34.2275 69.1017C34.8035 69.7097 35.1395 70.0777 35.2355 70.2057C35.7155 70.0457 36.4355 69.7257 37.3955 69.2457C38.3555 68.7337 39.3315 68.0617 40.3235 67.2297C41.3475 66.3977 42.2115 65.4057 42.9155 64.2537C43.6195 63.1017 43.9715 61.7897 43.9715 60.3177C43.9715 58.6217 43.3315 57.1977 42.0515 56.0457C40.8035 54.8617 39.1075 54.2697 36.9635 54.2697Z" fill="white"/>
<path d="M69.0324 118.863C70.2164 118.863 71.3124 118.975 72.3204 119.199C73.3284 119.407 74.1764 119.647 74.8644 119.919C75.5684 120.191 76.0324 120.423 76.2564 120.615L74.1684 124.287C73.8484 124.031 73.2724 123.727 72.4404 123.375C71.6244 123.023 70.7124 122.847 69.7044 122.847C68.7924 122.847 68.0244 123.007 67.4004 123.327C66.7764 123.631 66.4644 124.095 66.4644 124.719C66.4644 125.343 66.8004 125.839 67.4724 126.207C68.1444 126.575 69.0804 126.895 70.2804 127.167C71.2884 127.375 72.2804 127.695 73.2564 128.127C74.2324 128.543 75.0404 129.151 75.6804 129.951C76.3204 130.735 76.6404 131.783 76.6404 133.095C76.6404 134.391 76.3604 135.471 75.8004 136.335C75.2564 137.183 74.5284 137.855 73.6164 138.351C72.7044 138.847 71.7044 139.199 70.6164 139.407C69.5284 139.615 68.4484 139.719 67.3764 139.719C65.9844 139.719 64.7604 139.583 63.7044 139.311C62.6484 139.055 61.7764 138.759 61.0884 138.423C60.4164 138.071 59.9364 137.775 59.6484 137.535L61.7364 133.455C62.1524 133.823 62.8324 134.231 63.7764 134.679C64.7364 135.111 65.7684 135.327 66.8724 135.327C68.0244 135.327 68.9284 135.127 69.5844 134.727C70.2564 134.327 70.5924 133.791 70.5924 133.119C70.5924 132.623 70.4324 132.223 70.1124 131.919C69.7924 131.599 69.3524 131.335 68.7924 131.127C68.2324 130.919 67.5764 130.735 66.8244 130.575C66.1364 130.431 65.4324 130.223 64.7124 129.951C63.9924 129.663 63.3204 129.287 62.6964 128.823C62.0724 128.359 61.5684 127.783 61.1844 127.095C60.8004 126.391 60.6084 125.551 60.6084 124.575C60.6084 123.327 61.0084 122.287 61.8084 121.455C62.6084 120.607 63.6484 119.967 64.9284 119.535C66.2084 119.087 67.5764 118.863 69.0324 118.863ZM93.6047 130.647C93.6527 131.543 93.8927 132.343 94.3247 133.047C94.7567 133.751 95.3807 134.303 96.1967 134.703C97.0287 135.103 98.0207 135.303 99.1727 135.303C100.213 135.303 101.125 135.175 101.909 134.919C102.709 134.663 103.381 134.351 103.925 133.983C104.485 133.599 104.901 133.231 105.173 132.879L107.693 136.623C107.245 137.183 106.645 137.703 105.893 138.183C105.157 138.647 104.213 139.015 103.061 139.287C101.925 139.575 100.501 139.719 98.7887 139.719C96.6287 139.719 94.7327 139.295 93.1007 138.447C91.4687 137.599 90.1967 136.375 89.2847 134.775C88.3727 133.175 87.9167 131.271 87.9167 129.063C87.9167 127.143 88.3247 125.415 89.1407 123.879C89.9567 122.327 91.1407 121.103 92.6927 120.207C94.2607 119.311 96.1407 118.863 98.3327 118.863C100.397 118.863 102.181 119.263 103.685 120.063C105.205 120.847 106.381 121.999 107.213 123.519C108.045 125.039 108.461 126.895 108.461 129.087C108.461 129.215 108.453 129.479 108.437 129.879C108.437 130.263 108.421 130.519 108.389 130.647H93.6047ZM102.749 126.879C102.733 126.367 102.573 125.815 102.269 125.223C101.981 124.631 101.525 124.127 100.901 123.711C100.277 123.295 99.4447 123.087 98.4047 123.087C97.3647 123.087 96.5087 123.287 95.8367 123.687C95.1807 124.087 94.6847 124.583 94.3487 125.175C94.0127 125.751 93.8207 126.319 93.7727 126.879H102.749ZM126.401 139.143H120.305V119.439H126.401V122.631H126.281C126.393 122.247 126.697 121.759 127.193 121.167C127.705 120.575 128.409 120.047 129.305 119.583C130.201 119.103 131.281 118.863 132.545 118.863C133.457 118.863 134.281 118.999 135.017 119.271C135.769 119.527 136.305 119.783 136.625 120.039L134.225 125.031C134.017 124.775 133.625 124.511 133.049 124.239C132.489 123.967 131.785 123.831 130.937 123.831C129.929 123.831 129.089 124.111 128.417 124.671C127.745 125.215 127.241 125.887 126.905 126.687C126.569 127.471 126.401 128.207 126.401 128.895V139.143ZM145.213 119.439H151.741L157.141 133.575L162.541 119.439H169.045L160.717 139.143H153.565L145.213 119.439ZM180.869 139.143V119.439H186.941V139.143H180.869ZM183.989 114.351C182.981 114.351 182.125 113.999 181.421 113.295C180.733 112.591 180.389 111.751 180.389 110.775C180.389 109.799 180.741 108.951 181.445 108.231C182.149 107.511 182.997 107.151 183.989 107.151C184.645 107.151 185.245 107.319 185.789 107.655C186.333 107.975 186.773 108.407 187.109 108.951C187.445 109.495 187.613 110.103 187.613 110.775C187.613 111.751 187.253 112.591 186.533 113.295C185.829 113.999 184.981 114.351 183.989 114.351ZM206.334 139.143H200.238V119.439H206.334V122.631H206.214C206.326 122.247 206.63 121.759 207.126 121.167C207.638 120.575 208.342 120.047 209.238 119.583C210.134 119.103 211.214 118.863 212.478 118.863C213.39 118.863 214.214 118.999 214.95 119.271C215.702 119.527 216.238 119.783 216.558 120.039L214.158 125.031C213.95 124.775 213.558 124.511 212.982 124.239C212.422 123.967 211.718 123.831 210.87 123.831C209.862 123.831 209.022 124.111 208.35 124.671C207.678 125.215 207.174 125.887 206.838 126.687C206.502 127.471 206.334 128.207 206.334 128.895V139.143Z" fill="white"/>
<path d="M17.712 30V26.568C17.568 26.92 17.2 27.416 16.608 28.056C16.016 28.696 15.216 29.28 14.208 29.808C13.216 30.32 12.048 30.576 10.704 30.576C8.816 30.576 7.144 30.128 5.688 29.232C4.232 28.32 3.088 27.08 2.256 25.512C1.44 23.928 1.032 22.144 1.032 20.16C1.032 18.176 1.44 16.4 2.256 14.832C3.088 13.248 4.232 12 5.688 11.088C7.144 10.176 8.816 9.72 10.704 9.72C12.016 9.72 13.152 9.944 14.112 10.392C15.088 10.824 15.872 11.336 16.464 11.928C17.072 12.504 17.464 13.024 17.64 13.488V10.296H23.688V30H17.712ZM7.008 20.16C7.008 21.264 7.256 22.24 7.752 23.088C8.248 23.92 8.904 24.568 9.72 25.032C10.536 25.496 11.424 25.728 12.384 25.728C13.392 25.728 14.288 25.496 15.072 25.032C15.856 24.552 16.472 23.896 16.92 23.064C17.384 22.216 17.616 21.248 17.616 20.16C17.616 19.072 17.384 18.112 16.92 17.28C16.472 16.432 15.856 15.768 15.072 15.288C14.288 14.808 13.392 14.568 12.384 14.568C11.424 14.568 10.536 14.808 9.72 15.288C8.904 15.752 8.248 16.408 7.752 17.256C7.256 18.088 7.008 19.056 7.008 20.16ZM54.4684 9.72C55.9404 9.72 57.2204 10.032 58.3084 10.656C59.4124 11.28 60.2684 12.24 60.8764 13.536C61.5004 14.816 61.8124 16.464 61.8124 18.48V30H55.8124V19.464C55.8124 17.8 55.5644 16.504 55.0684 15.576C54.5884 14.648 53.6684 14.184 52.3084 14.184C51.5404 14.184 50.8364 14.392 50.1964 14.808C49.5564 15.208 49.0444 15.8 48.6604 16.584C48.2924 17.368 48.1084 18.328 48.1084 19.464V30H42.4924V19.464C42.4924 17.8 42.2124 16.504 41.6524 15.576C41.0924 14.648 40.2044 14.184 38.9884 14.184C38.2044 14.184 37.4924 14.384 36.8524 14.784C36.2284 15.184 35.7324 15.776 35.3644 16.56C35.0124 17.328 34.8364 18.296 34.8364 19.464V30H28.7884V10.296H34.8364V13.176C35.0124 12.68 35.4124 12.168 36.0364 11.64C36.6764 11.112 37.4684 10.664 38.4124 10.296C39.3564 9.912 40.3724 9.72 41.4604 9.72C42.6444 9.72 43.6284 9.92 44.4124 10.32C45.1964 10.72 45.8284 11.232 46.3084 11.856C46.8044 12.464 47.1804 13.104 47.4364 13.776C47.6604 13.152 48.1004 12.528 48.7564 11.904C49.4124 11.28 50.2364 10.76 51.2284 10.344C52.2204 9.928 53.3004 9.72 54.4684 9.72ZM82.1183 30V26.568C81.9743 26.92 81.6063 27.416 81.0143 28.056C80.4223 28.696 79.6223 29.28 78.6143 29.808C77.6223 30.32 76.4543 30.576 75.1103 30.576C73.2223 30.576 71.5503 30.128 70.0943 29.232C68.6383 28.32 67.4943 27.08 66.6623 25.512C65.8463 23.928 65.4383 22.144 65.4383 20.16C65.4383 18.176 65.8463 16.4 66.6623 14.832C67.4943 13.248 68.6383 12 70.0943 11.088C71.5503 10.176 73.2223 9.72 75.1103 9.72C76.4223 9.72 77.5582 9.944 78.5182 10.392C79.4943 10.824 80.2783 11.336 80.8703 11.928C81.4783 12.504 81.8703 13.024 82.0463 13.488V10.296H88.0943V30H82.1183ZM71.4143 20.16C71.4143 21.264 71.6623 22.24 72.1583 23.088C72.6543 23.92 73.3103 24.568 74.1263 25.032C74.9423 25.496 75.8303 25.728 76.7903 25.728C77.7983 25.728 78.6943 25.496 79.4783 25.032C80.2623 24.552 80.8783 23.896 81.3263 23.064C81.7903 22.216 82.0223 21.248 82.0223 20.16C82.0223 19.072 81.7903 18.112 81.3263 17.28C80.8783 16.432 80.2623 15.768 79.4783 15.288C78.6943 14.808 77.7983 14.568 76.7903 14.568C75.8303 14.568 74.9423 14.808 74.1263 15.288C73.3103 15.752 72.6543 16.408 72.1583 17.256C71.6623 18.088 71.4143 19.056 71.4143 20.16ZM98.7866 30H92.6906V10.296H98.7866V13.488H98.6666C98.7786 13.104 99.0826 12.616 99.5786 12.024C100.091 11.432 100.795 10.904 101.691 10.44C102.587 9.96 103.667 9.72 104.931 9.72C105.843 9.72 106.667 9.856 107.403 10.128C108.155 10.384 108.691 10.64 109.011 10.896L106.611 15.888C106.403 15.632 106.011 15.368 105.435 15.096C104.875 14.824 104.171 14.688 103.323 14.688C102.315 14.688 101.475 14.968 100.803 15.528C100.131 16.072 99.6266 16.744 99.2906 17.544C98.9546 18.328 98.7866 19.064 98.7866 19.752V30ZM115.534 22.656C116.654 22.656 117.606 23.048 118.39 23.832C119.19 24.616 119.59 25.728 119.59 27.168C119.59 28.496 119.318 29.784 118.774 31.032C118.23 32.28 117.502 33.4 116.59 34.392C115.694 35.384 114.718 36.168 113.662 36.744L111.862 34.8C112.39 34.528 112.958 34.16 113.566 33.696C114.174 33.232 114.726 32.696 115.222 32.088C115.734 31.496 116.086 30.864 116.278 30.192C115.958 30.368 115.526 30.456 114.982 30.456C114.07 30.456 113.262 30.104 112.558 29.4C111.87 28.696 111.526 27.784 111.526 26.664C111.526 25.912 111.702 25.232 112.054 24.624C112.422 24.016 112.91 23.536 113.518 23.184C114.126 22.832 114.798 22.656 115.534 22.656ZM79.8214 79V75.568C79.6774 75.92 79.3094 76.416 78.7174 77.056C78.1254 77.696 77.3254 78.28 76.3174 78.808C75.3254 79.32 74.1574 79.576 72.8134 79.576C70.9254 79.576 69.2534 79.128 67.7974 78.232C66.3414 77.32 65.1974 76.08 64.3654 74.512C63.5494 72.928 63.1414 71.144 63.1414 69.16C63.1414 67.176 63.5494 65.4 64.3654 63.832C65.1974 62.248 66.3414 61 67.7974 60.088C69.2534 59.176 70.9254 58.72 72.8134 58.72C74.1254 58.72 75.2614 58.944 76.2214 59.392C77.1974 59.824 77.9814 60.336 78.5734 60.928C79.1814 61.504 79.5734 62.024 79.7494 62.488V59.296H85.7974V79H79.8214ZM69.1174 69.16C69.1174 70.264 69.3654 71.24 69.8614 72.088C70.3574 72.92 71.0134 73.568 71.8294 74.032C72.6454 74.496 73.5334 74.728 74.4934 74.728C75.5014 74.728 76.3974 74.496 77.1814 74.032C77.9654 73.552 78.5814 72.896 79.0294 72.064C79.4934 71.216 79.7254 70.248 79.7254 69.16C79.7254 68.072 79.4934 67.112 79.0294 66.28C78.5814 65.432 77.9654 64.768 77.1814 64.288C76.3974 63.808 75.5014 63.568 74.4934 63.568C73.5334 63.568 72.6454 63.808 71.8294 64.288C71.0134 64.752 70.3574 65.408 69.8614 66.256C69.3654 67.088 69.1174 68.056 69.1174 69.16ZM100.954 74.728C101.994 74.728 102.842 74.552 103.498 74.2C104.154 73.848 104.586 73.584 104.794 73.408L107.626 77.608C107.402 77.784 106.986 78.032 106.378 78.352C105.77 78.672 104.994 78.952 104.05 79.192C103.122 79.448 102.058 79.576 100.858 79.576C98.7778 79.576 96.9138 79.16 95.2658 78.328C93.6178 77.48 92.3138 76.28 91.3538 74.728C90.4098 73.16 89.9378 71.296 89.9378 69.136C89.9378 66.96 90.4098 65.096 91.3538 63.544C92.3138 61.992 93.6178 60.8 95.2658 59.968C96.9138 59.136 98.7778 58.72 100.858 58.72C102.042 58.72 103.09 58.848 104.002 59.104C104.93 59.36 105.706 59.656 106.33 59.992C106.954 60.312 107.386 60.576 107.626 60.784L104.722 65.008C104.61 64.88 104.394 64.704 104.074 64.48C103.754 64.256 103.33 64.048 102.802 63.856C102.29 63.664 101.674 63.568 100.954 63.568C100.074 63.568 99.2338 63.8 98.4338 64.264C97.6498 64.728 97.0098 65.376 96.5138 66.208C96.0178 67.04 95.7698 68.016 95.7698 69.136C95.7698 70.256 96.0178 71.24 96.5138 72.088C97.0098 72.92 97.6498 73.568 98.4338 74.032C99.2338 74.496 100.074 74.728 100.954 74.728ZM120.724 79.576C118.628 79.576 116.756 79.128 115.108 78.232C113.476 77.336 112.196 76.112 111.268 74.56C110.34 72.992 109.876 71.208 109.876 69.208C109.876 67.208 110.34 65.424 111.268 63.856C112.196 62.272 113.476 61.024 115.108 60.112C116.756 59.184 118.628 58.72 120.724 58.72C122.836 58.72 124.7 59.184 126.316 60.112C127.932 61.024 129.196 62.272 130.108 63.856C131.02 65.424 131.476 67.208 131.476 69.208C131.476 71.208 131.02 72.992 130.108 74.56C129.196 76.112 127.932 77.336 126.316 78.232C124.7 79.128 122.836 79.576 120.724 79.576ZM120.724 74.512C121.732 74.512 122.604 74.288 123.34 73.84C124.092 73.376 124.668 72.744 125.068 71.944C125.484 71.128 125.692 70.208 125.692 69.184C125.692 68.16 125.484 67.24 125.068 66.424C124.668 65.608 124.092 64.968 123.34 64.504C122.604 64.024 121.732 63.784 120.724 63.784C119.716 63.784 118.836 64.024 118.084 64.504C117.348 64.968 116.772 65.608 116.356 66.424C115.94 67.24 115.732 68.16 115.732 69.184C115.732 70.208 115.94 71.128 116.356 71.944C116.772 72.744 117.348 73.376 118.084 73.84C118.836 74.288 119.716 74.512 120.724 74.512ZM141.735 79H135.615V45.976H141.735V79ZM159.655 58.72C160.999 58.72 162.311 59 163.591 59.56C164.871 60.104 165.919 60.976 166.735 62.176C167.567 63.376 167.983 64.944 167.983 66.88V79H161.863V67.936C161.863 66.32 161.495 65.12 160.759 64.336C160.039 63.552 159.071 63.16 157.855 63.16C157.039 63.16 156.255 63.384 155.503 63.832C154.767 64.264 154.159 64.872 153.679 65.656C153.215 66.424 152.983 67.304 152.983 68.296V79H146.863V45.976H152.983V62.44C153.143 61.896 153.535 61.336 154.159 60.76C154.783 60.184 155.575 59.704 156.535 59.32C157.495 58.92 158.535 58.72 159.655 58.72ZM177.322 70.504C177.37 71.4 177.61 72.2 178.042 72.904C178.474 73.608 179.098 74.16 179.914 74.56C180.746 74.96 181.738 75.16 182.89 75.16C183.93 75.16 184.842 75.032 185.626 74.776C186.426 74.52 187.098 74.208 187.642 73.84C188.202 73.456 188.618 73.088 188.89 72.736L191.41 76.48C190.962 77.04 190.362 77.56 189.61 78.04C188.874 78.504 187.93 78.872 186.778 79.144C185.642 79.432 184.218 79.576 182.506 79.576C180.346 79.576 178.45 79.152 176.818 78.304C175.186 77.456 173.914 76.232 173.002 74.632C172.09 73.032 171.634 71.128 171.634 68.92C171.634 67 172.042 65.272 172.858 63.736C173.674 62.184 174.858 60.96 176.41 60.064C177.978 59.168 179.858 58.72 182.05 58.72C184.114 58.72 185.898 59.12 187.402 59.92C188.922 60.704 190.098 61.856 190.93 63.376C191.762 64.896 192.178 66.752 192.178 68.944C192.178 69.072 192.17 69.336 192.154 69.736C192.154 70.12 192.138 70.376 192.106 70.504H177.322ZM186.466 66.736C186.45 66.224 186.29 65.672 185.986 65.08C185.698 64.488 185.242 63.984 184.618 63.568C183.994 63.152 183.162 62.944 182.122 62.944C181.082 62.944 180.226 63.144 179.554 63.544C178.898 63.944 178.402 64.44 178.066 65.032C177.73 65.608 177.538 66.176 177.49 66.736H186.466ZM201.959 79H195.863V59.296H201.959V62.488H201.839C201.951 62.104 202.255 61.616 202.751 61.024C203.263 60.432 203.967 59.904 204.863 59.44C205.759 58.96 206.839 58.72 208.103 58.72C209.015 58.72 209.839 58.856 210.575 59.128C211.327 59.384 211.863 59.64 212.183 59.896L209.783 64.888C209.575 64.632 209.183 64.368 208.607 64.096C208.047 63.824 207.343 63.688 206.495 63.688C205.487 63.688 204.647 63.968 203.975 64.528C203.303 65.072 202.799 65.744 202.463 66.544C202.127 67.328 201.959 68.064 201.959 68.752V79Z" fill="white"/>
</svg>
