<svg width="140" height="56" viewBox="0 0 140 56" fill="none" xmlns="http://www.w3.org/2000/svg">
<path d="M44.3776 7.64C49.9776 14.24 47.6576 23.36 42.6576 29.56C39.9376 32.96 36.4976 35.72 32.6576 37.76C29.4576 39.44 25.4176 41.24 21.7376 40.64C20.1776 40.36 18.7776 39.6 17.7376 38.52C16.3376 43.64 15.2176 48.84 14.3776 54.08C14.0976 55.76 10.5776 53.12 10.8576 51.48C13.0976 37.6 17.2176 24.12 23.1376 11.36C23.9376 9.64 27.3376 12.48 26.6576 13.96C24.9376 17.68 23.3776 21.44 21.9776 25.28C22.5776 24.8 23.2576 24.4 23.8976 24.04C25.2576 23.28 28.1776 26.64 26.4576 27.56C23.5376 29.2 20.2576 32.36 19.6976 35.84C19.5376 36.92 19.8176 37.04 20.8176 37.12C21.5776 37.16 22.3776 37.08 23.0976 36.92C24.6976 36.56 26.2976 35.96 27.7776 35.32C33.5376 32.84 39.0176 28.36 41.8976 22.72C44.6576 17.36 45.5376 9.72 39.0976 6.72C32.7776 3.76 25.0976 6.44 19.1776 9.16C16.2176 10.52 13.4176 12.16 10.9376 14.24C9.73762 15.28 8.57762 16.44 7.57762 17.68C7.09762 18.28 6.61762 18.92 6.21762 19.56C6.09762 19.76 5.29762 21.08 5.37762 21.16C6.93762 23.72 4.01762 23.96 2.81762 22.04C0.257617 18 4.57762 13.84 7.53762 11.28C11.2176 8.08 15.6576 5.84 20.1776 4.16C28.2976 1.12 38.1776 0.399996 44.3776 7.64ZM62.067 32.56C63.427 31.4 65.627 33.48 64.347 34.56C62.147 36.44 59.827 38.24 57.427 39.88C55.467 41.16 53.267 42.76 50.907 43.24C48.267 43.8 45.707 41.32 45.667 38.64C45.587 35.64 47.867 32.16 49.347 29.64C50.307 27.92 53.667 30.84 52.867 32.2C51.707 34.24 50.667 36.2 49.867 38.4C49.747 38.68 49.627 38.96 49.547 39.28C52.307 38.76 58.867 35.24 62.067 32.56ZM56.227 25.4C55.707 27.16 52.227 24.4 52.707 22.8C53.587 19.88 54.747 17.08 56.227 14.4C57.187 12.68 60.547 15.6 59.787 16.96C58.307 19.68 57.107 22.48 56.227 25.4ZM74.4376 7.76C75.4376 6.08 78.7576 9 77.9576 10.36C74.2376 16.6 70.9576 23.24 68.1576 30.04C69.8376 28.44 71.8376 27.28 73.9576 28.6C76.9976 30.56 76.4376 34.48 75.5976 37.48C74.6376 40.76 72.0776 43.6 68.4376 43.4C66.8376 43.32 64.4376 39.68 66.5976 39.8C69.1976 39.92 71.0376 37.84 71.8376 35.56C72.1976 34.56 72.2776 33.52 72.4376 32.48C72.1176 32.72 71.7976 32.92 71.5976 33.12C67.9576 36.44 64.8776 40.6 62.8376 45.12C62.6776 45.56 62.3176 45.72 61.9176 45.64C60.6376 45.56 58.7976 43.64 59.3176 42.52C62.9176 30.48 67.9576 18.56 74.4376 7.76ZM93.7923 32.04C94.2323 32.8 94.0723 33.72 93.1523 33.8C92.3923 33.88 91.7123 33.36 91.1923 32.76C90.3123 32.76 88.3123 34.24 87.7923 34.64C86.7923 35.4 85.8723 36.28 85.0323 37.2C83.1123 39.24 81.5123 41.52 80.3523 44.04C79.5523 45.84 76.2723 42.96 76.8323 41.48C78.3523 37.44 79.9923 33.48 81.4723 29.44C81.9923 27.96 84.4723 29.64 84.9523 31.16C88.0723 28.76 91.4323 28.04 93.7923 32.04ZM136.074 32.52C137.474 31.4 139.394 33.56 138.114 34.6C134.794 37.24 131.394 39.88 127.714 42C126.314 42.8 124.714 43.72 123.074 43.76C121.354 43.84 119.674 42.64 119.194 40.96C118.994 40.24 119.154 39.52 119.274 38.8C119.274 38.76 119.314 38.72 119.314 38.68C119.114 38.76 118.954 38.84 118.834 38.88C118.194 39.28 117.554 39.8 116.954 40.24C115.674 41.16 114.394 42.08 113.114 42.96C111.674 44 109.434 41.52 109.754 40.08C110.114 38.56 110.474 37.04 110.794 35.52C110.874 35.12 111.034 34.68 111.194 34.16C110.634 34.52 110.074 34.88 109.634 35.12C108.074 35.96 106.594 36.88 105.154 37.92C102.474 39.8 99.9939 41.92 97.6739 44.24C96.5539 45.36 94.1139 42.92 94.2739 41.72C94.7139 38.16 95.7539 34.84 97.4339 31.68C98.3139 29.96 101.674 32.84 100.954 34.24C100.634 34.88 100.314 35.52 100.034 36.16C103.154 33.72 106.554 31.64 110.154 30C112.434 28.96 114.994 30.24 115.314 32.92C115.434 34 115.074 35.16 114.794 36.28C115.274 35.96 115.754 35.64 116.234 35.36C117.554 34.56 118.994 34.16 120.434 34.8C121.874 35.44 123.034 36.92 123.194 38.48C123.234 38.8 123.234 39.16 123.194 39.48C125.034 39 132.554 35.36 136.074 32.52Z" fill="white"/>
</svg>
