<svg width="22" height="23" viewBox="0 0 22 23" fill="none" xmlns="http://www.w3.org/2000/svg">
<path d="M0 6.1125C0 3.18539 2.37289 0.8125 5.3 0.8125H18V18.8125H0V6.1125Z" fill="#8C51E4"/>
<path d="M19.62 3.49C21.72 5.965 20.85 9.385 18.975 11.71C17.955 12.985 16.665 14.02 15.225 14.785C14.025 15.415 12.51 16.09 11.13 15.865C10.545 15.76 10.02 15.475 9.63 15.07C9.105 16.99 8.685 18.94 8.37 20.905C8.265 21.535 6.945 20.545 7.05 19.93C7.89 14.725 9.435 9.67 11.655 4.885C11.955 4.24 13.23 5.305 12.975 5.86C12.33 7.255 11.745 8.665 11.22 10.105C11.445 9.925 11.7 9.775 11.94 9.64C12.45 9.355 13.545 10.615 12.9 10.96C11.805 11.575 10.575 12.76 10.365 14.065C10.305 14.47 10.41 14.515 10.785 14.545C11.07 14.56 11.37 14.53 11.64 14.47C12.24 14.335 12.84 14.11 13.395 13.87C15.555 12.94 17.61 11.26 18.69 9.145C19.725 7.135 20.055 4.27 17.64 3.145C15.27 2.035 12.39 3.04 10.17 4.06C9.06 4.57 8.01 5.185 7.08 5.965C6.63 6.355 6.195 6.79 5.82 7.255C5.64 7.48 5.46 7.72 5.31 7.96C5.265 8.035 4.965 8.53 4.995 8.56C5.58 9.52 4.485 9.61 4.035 8.89C3.075 7.375 4.695 5.815 5.805 4.855C7.185 3.655 8.85 2.815 10.545 2.185C13.59 1.045 17.295 0.774998 19.62 3.49Z" fill="white"/>
</svg>
